<mxfile host="app.diagrams.net" modified="2022-08-09T13:53:44.036Z" agent="5.0 (Windows NT 10.0; Win64; x64) AppleWebKit/537.36 (KHTML, like Gecko) Chrome/103.0.0.0 Safari/537.36" etag="wajQmeGwR2wlsxvDAeox" version="20.2.3" type="github">
  <diagram id="DusGduxuzFebuArbpg9_" name="Page-1">
    <mxGraphModel dx="1185" dy="662" grid="1" gridSize="10" guides="1" tooltips="1" connect="1" arrows="1" fold="1" page="1" pageScale="1" pageWidth="850" pageHeight="1100" math="0" shadow="0">
      <root>
        <mxCell id="0" />
        <mxCell id="1" parent="0" />
        <mxCell id="SbZlyKQb2ZSINrOsMYrD-37" value="Frontend" style="rounded=1;whiteSpace=wrap;html=1;fillColor=#d5e8d4;strokeColor=#82b366;labelPosition=center;verticalLabelPosition=top;align=center;verticalAlign=bottom;" vertex="1" parent="1">
          <mxGeometry x="125" y="35" width="150" height="90" as="geometry" />
        </mxCell>
        <mxCell id="SbZlyKQb2ZSINrOsMYrD-5" style="edgeStyle=orthogonalEdgeStyle;rounded=0;orthogonalLoop=1;jettySize=auto;html=1;exitX=0.5;exitY=0.5;exitDx=0;exitDy=0;exitPerimeter=0;entryX=0;entryY=0.5;entryDx=0;entryDy=0;" edge="1" parent="1" source="SbZlyKQb2ZSINrOsMYrD-1" target="SbZlyKQb2ZSINrOsMYrD-4">
          <mxGeometry relative="1" as="geometry" />
        </mxCell>
        <mxCell id="SbZlyKQb2ZSINrOsMYrD-1" value="User" style="shape=umlActor;verticalLabelPosition=bottom;verticalAlign=top;html=1;outlineConnect=0;" vertex="1" parent="1">
          <mxGeometry x="40" y="50" width="30" height="60" as="geometry" />
        </mxCell>
        <mxCell id="SbZlyKQb2ZSINrOsMYrD-3" value="Backend" style="rounded=1;whiteSpace=wrap;html=1;fillColor=#d5e8d4;strokeColor=#82b366;labelPosition=center;verticalLabelPosition=top;align=center;verticalAlign=bottom;" vertex="1" parent="1">
          <mxGeometry x="290" y="50" width="200" height="60" as="geometry" />
        </mxCell>
        <mxCell id="SbZlyKQb2ZSINrOsMYrD-7" style="edgeStyle=orthogonalEdgeStyle;rounded=0;orthogonalLoop=1;jettySize=auto;html=1;exitX=0.5;exitY=1;exitDx=0;exitDy=0;entryX=0.5;entryY=0;entryDx=0;entryDy=0;entryPerimeter=0;endArrow=none;endFill=0;" edge="1" parent="1" source="SbZlyKQb2ZSINrOsMYrD-4" target="SbZlyKQb2ZSINrOsMYrD-6">
          <mxGeometry relative="1" as="geometry" />
        </mxCell>
        <mxCell id="SbZlyKQb2ZSINrOsMYrD-9" style="edgeStyle=orthogonalEdgeStyle;rounded=0;orthogonalLoop=1;jettySize=auto;html=1;exitX=1;exitY=0.5;exitDx=0;exitDy=0;entryX=0;entryY=0.5;entryDx=0;entryDy=0;endArrow=classic;endFill=1;" edge="1" parent="1" source="SbZlyKQb2ZSINrOsMYrD-4" target="SbZlyKQb2ZSINrOsMYrD-3">
          <mxGeometry relative="1" as="geometry" />
        </mxCell>
        <mxCell id="SbZlyKQb2ZSINrOsMYrD-4" value="User creates TestSuitesSource" style="rounded=1;whiteSpace=wrap;html=1;fillColor=#ffe6cc;strokeColor=#d79b00;" vertex="1" parent="1">
          <mxGeometry x="140" y="50" width="120" height="60" as="geometry" />
        </mxCell>
        <mxCell id="SbZlyKQb2ZSINrOsMYrD-6" value="Inputs:&lt;br&gt;- git repository&lt;br&gt;- git branch&lt;br&gt;- relative path in repository to tests" style="shape=note;whiteSpace=wrap;html=1;backgroundOutline=1;darkOpacity=0.05;fillColor=#f8cecc;strokeColor=#b85450;" vertex="1" parent="1">
          <mxGeometry x="140" y="140" width="120" height="100" as="geometry" />
        </mxCell>
        <mxCell id="SbZlyKQb2ZSINrOsMYrD-8" value="Save TestSuitesSource in DB" style="rounded=1;whiteSpace=wrap;html=1;fillColor=#ffe6cc;strokeColor=#d79b00;" vertex="1" parent="1">
          <mxGeometry x="300" y="65" width="180" height="30" as="geometry" />
        </mxCell>
        <mxCell id="SbZlyKQb2ZSINrOsMYrD-14" value="User" style="shape=umlActor;verticalLabelPosition=bottom;verticalAlign=top;html=1;outlineConnect=0;" vertex="1" parent="1">
          <mxGeometry x="40" y="570" width="30" height="60" as="geometry" />
        </mxCell>
        <mxCell id="SbZlyKQb2ZSINrOsMYrD-16" value="Frontend" style="rounded=1;whiteSpace=wrap;html=1;labelPosition=center;verticalLabelPosition=top;align=center;verticalAlign=bottom;fillColor=#d5e8d4;strokeColor=#82b366;" vertex="1" parent="1">
          <mxGeometry x="110" y="510" width="250" height="180" as="geometry" />
        </mxCell>
        <mxCell id="SbZlyKQb2ZSINrOsMYrD-18" value="Select TestSuites from existed ones" style="rounded=1;whiteSpace=wrap;html=1;fillColor=#ffe6cc;strokeColor=#d79b00;" vertex="1" parent="1">
          <mxGeometry x="135" y="530" width="200" height="30" as="geometry" />
        </mxCell>
        <mxCell id="SbZlyKQb2ZSINrOsMYrD-39" style="edgeStyle=orthogonalEdgeStyle;rounded=0;orthogonalLoop=1;jettySize=auto;html=1;exitX=1;exitY=0.5;exitDx=0;exitDy=0;entryX=1;entryY=0.5;entryDx=0;entryDy=0;startArrow=none;startFill=0;endArrow=classic;endFill=1;" edge="1" parent="1" source="SbZlyKQb2ZSINrOsMYrD-19" target="SbZlyKQb2ZSINrOsMYrD-27">
          <mxGeometry relative="1" as="geometry" />
        </mxCell>
        <mxCell id="SbZlyKQb2ZSINrOsMYrD-19" value="Backend" style="rounded=1;whiteSpace=wrap;html=1;fillColor=#d5e8d4;strokeColor=#82b366;labelPosition=center;verticalLabelPosition=top;align=center;verticalAlign=bottom;" vertex="1" parent="1">
          <mxGeometry x="430" y="510" width="140" height="50" as="geometry" />
        </mxCell>
        <mxCell id="SbZlyKQb2ZSINrOsMYrD-20" value="Prepare execution" style="rounded=1;whiteSpace=wrap;html=1;fillColor=#ffe6cc;strokeColor=#d79b00;" vertex="1" parent="1">
          <mxGeometry x="440" y="520" width="120" height="30" as="geometry" />
        </mxCell>
        <mxCell id="SbZlyKQb2ZSINrOsMYrD-22" style="edgeStyle=orthogonalEdgeStyle;rounded=0;orthogonalLoop=1;jettySize=auto;html=1;endArrow=none;endFill=0;startArrow=classic;startFill=1;" edge="1" parent="1" source="SbZlyKQb2ZSINrOsMYrD-21" target="SbZlyKQb2ZSINrOsMYrD-14">
          <mxGeometry relative="1" as="geometry">
            <mxPoint x="60" y="600" as="targetPoint" />
            <Array as="points">
              <mxPoint x="120" y="600" />
              <mxPoint x="120" y="605" />
              <mxPoint x="100" y="605" />
              <mxPoint x="100" y="600" />
            </Array>
          </mxGeometry>
        </mxCell>
        <mxCell id="SbZlyKQb2ZSINrOsMYrD-21" value="Select binary for evaluated tools" style="rounded=1;whiteSpace=wrap;html=1;fillColor=#ffe6cc;strokeColor=#d79b00;" vertex="1" parent="1">
          <mxGeometry x="135" y="585" width="180" height="30" as="geometry" />
        </mxCell>
        <mxCell id="SbZlyKQb2ZSINrOsMYrD-17" style="edgeStyle=orthogonalEdgeStyle;rounded=0;orthogonalLoop=1;jettySize=auto;html=1;entryX=0;entryY=0.5;entryDx=0;entryDy=0;endArrow=classic;endFill=1;" edge="1" parent="1" source="SbZlyKQb2ZSINrOsMYrD-14" target="SbZlyKQb2ZSINrOsMYrD-18">
          <mxGeometry relative="1" as="geometry" />
        </mxCell>
        <mxCell id="SbZlyKQb2ZSINrOsMYrD-26" style="edgeStyle=orthogonalEdgeStyle;rounded=0;orthogonalLoop=1;jettySize=auto;html=1;exitX=1;exitY=0.5;exitDx=0;exitDy=0;entryX=0;entryY=0.5;entryDx=0;entryDy=0;startArrow=none;startFill=0;endArrow=classic;endFill=1;" edge="1" parent="1" source="SbZlyKQb2ZSINrOsMYrD-23" target="SbZlyKQb2ZSINrOsMYrD-19">
          <mxGeometry relative="1" as="geometry" />
        </mxCell>
        <mxCell id="SbZlyKQb2ZSINrOsMYrD-23" value="Trigger run" style="rounded=1;whiteSpace=wrap;html=1;fillColor=#ffe6cc;strokeColor=#d79b00;" vertex="1" parent="1">
          <mxGeometry x="135" y="640" width="195" height="30" as="geometry" />
        </mxCell>
        <mxCell id="SbZlyKQb2ZSINrOsMYrD-24" style="edgeStyle=orthogonalEdgeStyle;rounded=0;orthogonalLoop=1;jettySize=auto;html=1;entryX=0;entryY=0.5;entryDx=0;entryDy=0;startArrow=none;startFill=0;endArrow=classic;endFill=1;" edge="1" parent="1" source="SbZlyKQb2ZSINrOsMYrD-14" target="SbZlyKQb2ZSINrOsMYrD-23">
          <mxGeometry relative="1" as="geometry" />
        </mxCell>
        <mxCell id="SbZlyKQb2ZSINrOsMYrD-27" value="Orchestrator" style="rounded=1;whiteSpace=wrap;html=1;labelPosition=center;verticalLabelPosition=top;align=center;verticalAlign=bottom;fillColor=#d5e8d4;strokeColor=#82b366;" vertex="1" parent="1">
          <mxGeometry x="430" y="615" width="140" height="60" as="geometry" />
        </mxCell>
        <mxCell id="SbZlyKQb2ZSINrOsMYrD-29" value="Initialize agents" style="rounded=1;whiteSpace=wrap;html=1;fillColor=#ffe6cc;strokeColor=#d79b00;" vertex="1" parent="1">
          <mxGeometry x="440" y="630" width="120" height="30" as="geometry" />
        </mxCell>
        <mxCell id="SbZlyKQb2ZSINrOsMYrD-31" value="Backend" style="rounded=1;whiteSpace=wrap;html=1;fillColor=#d5e8d4;strokeColor=#82b366;labelPosition=center;verticalLabelPosition=top;align=center;verticalAlign=bottom;" vertex="1" parent="1">
          <mxGeometry x="60" y="330" width="200" height="60" as="geometry" />
        </mxCell>
        <mxCell id="SbZlyKQb2ZSINrOsMYrD-33" value="New tests" style="edgeStyle=orthogonalEdgeStyle;rounded=0;orthogonalLoop=1;jettySize=auto;html=1;exitX=0.25;exitY=0;exitDx=0;exitDy=0;entryX=0.75;entryY=0;entryDx=0;entryDy=0;endArrow=classic;endFill=1;" edge="1" parent="1" source="SbZlyKQb2ZSINrOsMYrD-34" target="SbZlyKQb2ZSINrOsMYrD-31">
          <mxGeometry x="0.0003" y="10" relative="1" as="geometry">
            <mxPoint as="offset" />
            <Array as="points">
              <mxPoint x="380" y="290" />
              <mxPoint x="210" y="290" />
            </Array>
          </mxGeometry>
        </mxCell>
        <mxCell id="SbZlyKQb2ZSINrOsMYrD-34" value="Preprocessor" style="rounded=1;whiteSpace=wrap;html=1;labelPosition=center;verticalLabelPosition=top;align=center;verticalAlign=bottom;fillColor=#d5e8d4;strokeColor=#82b366;" vertex="1" parent="1">
          <mxGeometry x="330" y="330" width="200" height="60" as="geometry" />
        </mxCell>
        <mxCell id="SbZlyKQb2ZSINrOsMYrD-35" value="&amp;nbsp; &amp;nbsp;Fetching all TestSutiesSources" style="endArrow=classic;html=1;rounded=0;entryX=0.25;entryY=1;entryDx=0;entryDy=0;exitX=0.75;exitY=1;exitDx=0;exitDy=0;" edge="1" parent="1">
          <mxGeometry x="-0.037" y="10" width="50" height="50" relative="1" as="geometry">
            <mxPoint x="210" y="390" as="sourcePoint" />
            <mxPoint x="380" y="390" as="targetPoint" />
            <mxPoint as="offset" />
            <Array as="points">
              <mxPoint x="210" y="440" />
              <mxPoint x="380" y="440" />
            </Array>
          </mxGeometry>
        </mxCell>
        <mxCell id="SbZlyKQb2ZSINrOsMYrD-36" value="Clone the repo and discover tests" style="rounded=1;whiteSpace=wrap;html=1;fillColor=#ffe6cc;strokeColor=#d79b00;" vertex="1" parent="1">
          <mxGeometry x="335" y="340" width="190" height="40" as="geometry" />
        </mxCell>
        <mxCell id="SbZlyKQb2ZSINrOsMYrD-38" value="Periodically trigger" style="ellipse;shape=cloud;whiteSpace=wrap;html=1;fillColor=#fff2cc;strokeColor=#d6b656;" vertex="1" parent="1">
          <mxGeometry x="70" y="340" width="180" height="40" as="geometry" />
        </mxCell>
      </root>
    </mxGraphModel>
  </diagram>
</mxfile>
